<svg width="58" height="35" viewBox="0 0 58 35" fill="none" xmlns="http://www.w3.org/2000/svg">
<path d="M38.6008 23.2887H36.7301V29.6829C36.7301 29.8026 36.6272 29.9052 36.507 29.9052H35.0654C34.9453 29.9052 34.8423 29.8026 34.8423 29.6829V23.2887H32.9544C32.903 23.2887 32.8343 23.2716 32.8 23.2374C32.7657 23.2032 32.7313 23.1519 32.7313 23.0836V21.9552C32.7313 21.9039 32.7485 21.8355 32.8 21.8013C32.8343 21.7671 32.903 21.7329 32.9544 21.75H38.6008C38.721 21.75 38.8239 21.8355 38.8239 21.9552V23.0836C38.8239 23.2032 38.721 23.2887 38.6008 23.2887Z" fill="white"/>
<path d="M44.6076 29.8539C43.8696 29.9565 43.1145 30.0077 42.3765 29.9906C40.9521 29.9906 39.6992 29.6316 39.6992 27.6313V23.9897C39.6992 21.9894 40.9692 21.6474 42.3937 21.6474C43.1317 21.6303 43.8696 21.6816 44.6076 21.7842C44.7621 21.8013 44.8307 21.8697 44.8307 22.0065V23.0323C44.8307 23.152 44.7278 23.2545 44.6076 23.2545H42.2907C41.7758 23.2545 41.5871 23.4255 41.5871 24.0068V24.9984H44.5218C44.6419 24.9984 44.7449 25.101 44.7449 25.2207V26.2636C44.7449 26.3832 44.6419 26.4858 44.5218 26.4858H41.5871V27.6484C41.5871 28.2126 41.7758 28.4007 42.2907 28.4007H44.6076C44.7278 28.4007 44.8307 28.5032 44.8307 28.6229V29.6487C44.8307 29.7684 44.7621 29.8368 44.6076 29.8539Z" fill="white"/>
<path d="M52.9142 29.9052H51.1636C51.0435 29.9223 50.9233 29.8539 50.8719 29.7342L49.3444 27.3407L47.9714 29.6829C47.9028 29.8197 47.817 29.9052 47.6968 29.9052H46.0664C46.0321 29.9052 45.9806 29.9052 45.9463 29.871C45.912 29.8368 45.8948 29.8026 45.8948 29.7513C45.8948 29.7171 45.912 29.7 45.912 29.6829L48.2975 25.7165L45.8776 21.9552C45.8605 21.9381 45.8605 21.9039 45.8605 21.8868C45.8605 21.8013 45.9463 21.7329 46.0321 21.75H47.8341C47.9543 21.75 48.0401 21.8526 48.1087 21.9552L49.516 24.1778L50.889 21.9552C50.9405 21.8355 51.0435 21.7671 51.1636 21.75H52.794C52.8798 21.75 52.9657 21.8013 52.9657 21.8868C52.9657 21.9039 52.9485 21.9381 52.9485 21.9552L50.5458 25.7507L53.0515 29.6829C53.0686 29.7171 53.0858 29.7513 53.0858 29.7855C53.0686 29.8539 53.0171 29.9052 52.9142 29.9052Z" fill="white"/>
<path d="M30.0883 21.7671C30.0025 21.7671 29.9339 21.8184 29.9167 21.9039L28.3206 27.8023C28.3035 27.922 28.2691 27.9732 28.1662 27.9732C28.0632 27.9732 28.0289 27.922 28.0117 27.8023L26.4156 21.9039C26.3984 21.8184 26.3298 21.7671 26.244 21.7671H24.6651C24.6136 21.7671 24.5621 21.7842 24.5278 21.8355C24.4934 21.8697 24.4763 21.921 24.4934 21.9723C24.4934 21.9723 26.4499 28.7426 26.4671 28.811C26.7245 29.6145 27.3595 30.0078 28.1662 30.0078C28.9385 30.0419 29.6421 29.5461 29.8652 28.811C29.8996 28.7255 31.8046 21.9723 31.8046 21.9723C31.8217 21.921 31.8046 21.8697 31.7702 21.8355C31.7359 21.8013 31.6844 21.7671 31.6329 21.7671H30.0883Z" fill="white"/>
<path d="M21.164 16.2791H4.73967C4.13899 16.2791 3.5898 16.6039 3.29804 17.0997C2.98912 17.6126 2.97196 18.2452 3.24656 18.7581L4.89413 21.8697H1.9079C1.53033 21.8697 1.16992 22.0578 0.963976 22.3826C0.758028 22.7074 0.758028 23.1177 0.929651 23.4597L6.21563 33.41C6.40441 33.769 6.78198 33.9913 7.17672 33.9913C7.57145 33.9913 7.94902 33.769 8.1378 33.41L9.57943 30.7087L11.3815 34.111C11.6732 34.658 12.2567 35 12.8746 35C13.4924 35 14.0759 34.658 14.3677 34.111L22.6056 18.6726C22.8802 18.1597 22.863 17.5442 22.5541 17.0655C22.2795 16.5697 21.7475 16.2791 21.164 16.2791ZM13.8185 22.7929L10.2144 29.529C10.0943 29.7684 9.85403 29.9052 9.57943 29.9052C9.30484 29.9052 9.06457 29.7513 8.94443 29.529L5.39184 22.8613C5.28887 22.6561 5.28887 22.4168 5.409 22.2116C5.52914 22.0065 5.75225 21.8868 5.97536 21.8868H13.2522C13.4753 21.8868 13.6812 21.9894 13.7842 22.1774C13.9215 22.3655 13.9215 22.6048 13.8185 22.7929Z" fill="white"/>
<path d="M3.66738 2.57884C4.69927 2.57884 5.49086 2.77674 6.04215 3.17253C6.6005 3.56126 6.87968 4.14435 6.87968 4.92181C6.87968 5.34587 6.80193 5.70986 6.64644 6.01378C6.49802 6.31062 6.27892 6.55446 5.98914 6.74529C5.70643 6.92905 5.36011 7.06334 4.95018 7.14815C4.54025 7.23297 4.07731 7.27537 3.56136 7.27537H2.74503V10H1.71667V2.75907C2.00645 2.68839 2.32804 2.64245 2.68142 2.62125C3.04188 2.59298 3.37053 2.57884 3.66738 2.57884ZM3.75219 3.47998C3.31399 3.47998 2.97827 3.49058 2.74503 3.51179V6.39544H3.51896C3.87234 6.39544 4.19039 6.37423 4.4731 6.33183C4.75581 6.28235 4.99259 6.20461 5.18341 6.09859C5.38131 5.98551 5.53327 5.83355 5.63929 5.64272C5.7453 5.45189 5.79831 5.20805 5.79831 4.91121C5.79831 4.62849 5.74177 4.39526 5.62868 4.2115C5.52267 4.02773 5.37424 3.88285 5.18341 3.77683C4.99965 3.66374 4.78409 3.586 4.53671 3.54359C4.28934 3.50119 4.02783 3.47998 3.75219 3.47998ZM12.7415 7.24357C12.7415 7.68177 12.6779 8.07757 12.5507 8.43096C12.4234 8.78434 12.2432 9.08826 12.01 9.3427C11.7838 9.59714 11.5117 9.79503 11.1936 9.93639C10.8756 10.0707 10.5293 10.1378 10.1547 10.1378C9.78009 10.1378 9.43377 10.0707 9.11572 9.93639C8.79767 9.79503 8.52202 9.59714 8.28879 9.3427C8.06262 9.08826 7.88593 8.78434 7.75871 8.43096C7.63149 8.07757 7.56788 7.68177 7.56788 7.24357C7.56788 6.81244 7.63149 6.42017 7.75871 6.06679C7.88593 5.70633 8.06262 5.39888 8.28879 5.14444C8.52202 4.89 8.79767 4.69564 9.11572 4.56135C9.43377 4.42 9.78009 4.34932 10.1547 4.34932C10.5293 4.34932 10.8756 4.42 11.1936 4.56135C11.5117 4.69564 11.7838 4.89 12.01 5.14444C12.2432 5.39888 12.4234 5.70633 12.5507 6.06679C12.6779 6.42017 12.7415 6.81244 12.7415 7.24357ZM11.7131 7.24357C11.7131 6.62161 11.5718 6.1304 11.2891 5.76994C11.0134 5.40242 10.6353 5.21865 10.1547 5.21865C9.67407 5.21865 9.29241 5.40242 9.0097 5.76994C8.73406 6.1304 8.59624 6.62161 8.59624 7.24357C8.59624 7.86553 8.73406 8.36028 9.0097 8.7278C9.29241 9.08826 9.67407 9.26849 10.1547 9.26849C10.6353 9.26849 11.0134 9.08826 11.2891 8.7278C11.5718 8.36028 11.7131 7.86553 11.7131 7.24357ZM18.4998 10C18.3019 9.49112 18.0898 8.91156 17.8637 8.26133C17.6446 7.60403 17.4431 6.92199 17.2594 6.21521C17.0756 6.92199 16.8742 7.60403 16.6551 8.26133C16.436 8.91156 16.2275 9.49112 16.0296 10H15.1708C14.8457 9.27202 14.5277 8.44156 14.2167 7.50861C13.9057 6.57567 13.6124 5.56851 13.3367 4.48714H14.3969C14.4676 4.81932 14.5524 5.17978 14.6514 5.56851C14.7503 5.95724 14.8528 6.34596 14.9588 6.73469C15.0719 7.12342 15.1885 7.49801 15.3087 7.85847C15.4288 8.21892 15.5419 8.53344 15.6479 8.80201C15.7681 8.46983 15.8847 8.11997 15.9978 7.75245C16.1179 7.37786 16.231 7.00327 16.337 6.62867C16.443 6.24701 16.542 5.87596 16.6339 5.5155C16.7328 5.14798 16.8176 4.80519 16.8883 4.48714H17.7046C17.7682 4.80519 17.846 5.14798 17.9379 5.5155C18.0297 5.87596 18.1287 6.24701 18.2347 6.62867C18.3407 7.00327 18.4503 7.37786 18.5634 7.75245C18.6835 8.11997 18.8037 8.46983 18.9238 8.80201C19.0298 8.53344 19.1394 8.21892 19.2525 7.85847C19.3726 7.49801 19.4892 7.12342 19.6023 6.73469C19.7154 6.34596 19.8214 5.95724 19.9204 5.56851C20.0193 5.17978 20.1041 4.81932 20.1748 4.48714H21.1926C20.9169 5.56851 20.6236 6.57567 20.3126 7.50861C20.0017 8.44156 19.6836 9.27202 19.3585 10H18.4998ZM21.9277 7.25417C21.9277 6.7665 21.9984 6.34243 22.1398 5.98197C22.2811 5.61445 22.4684 5.31053 22.7017 5.07023C22.9349 4.82993 23.2035 4.6497 23.5074 4.52955C23.8113 4.40939 24.1223 4.34932 24.4403 4.34932C25.1824 4.34932 25.7514 4.58255 26.1472 5.04903C26.543 5.50843 26.7409 6.21168 26.7409 7.15876C26.7409 7.20116 26.7409 7.25771 26.7409 7.32838C26.7409 7.39199 26.7374 7.45207 26.7303 7.50861H22.9561C22.9985 8.0811 23.1646 8.51577 23.4544 8.81261C23.7442 9.10946 24.1965 9.25788 24.8114 9.25788C25.1577 9.25788 25.4475 9.22961 25.6807 9.17307C25.921 9.10946 26.1013 9.04938 26.2214 8.99284L26.3592 9.81977C26.2391 9.88338 26.027 9.95053 25.7231 10.0212C25.4263 10.0919 25.087 10.1272 24.7054 10.1272C24.2248 10.1272 23.8078 10.0565 23.4544 9.91519C23.1081 9.76676 22.8218 9.56533 22.5956 9.31089C22.3695 9.05645 22.1998 8.75607 22.0868 8.40975C21.9807 8.05636 21.9277 7.67117 21.9277 7.25417ZM25.7125 6.71349C25.7196 6.26822 25.6065 5.90423 25.3733 5.62152C25.1471 5.33174 24.8326 5.18685 24.4297 5.18685C24.2036 5.18685 24.0021 5.23279 23.8254 5.32467C23.6558 5.40948 23.5109 5.52257 23.3908 5.66392C23.2706 5.80528 23.1752 5.96784 23.1045 6.1516C23.0409 6.33536 22.9985 6.52266 22.9773 6.71349H25.7125ZM30.1927 4.37052C30.2775 4.37052 30.3729 4.37759 30.479 4.39172C30.592 4.39879 30.7016 4.41293 30.8076 4.43413C30.9136 4.44827 31.009 4.46594 31.0939 4.48714C31.1857 4.50128 31.2529 4.51541 31.2953 4.52955L31.1257 5.38828C31.0479 5.36001 30.9172 5.3282 30.7334 5.29287C30.5567 5.25046 30.327 5.22926 30.0443 5.22926C29.8605 5.22926 29.6768 5.25046 29.493 5.29287C29.3163 5.3282 29.1997 5.35294 29.1432 5.36708V10H28.1572V4.72038C28.3904 4.63556 28.6802 4.55782 29.0265 4.48714C29.3729 4.40939 29.7616 4.37052 30.1927 4.37052ZM31.9393 7.25417C31.9393 6.7665 32.0099 6.34243 32.1513 5.98197C32.2926 5.61445 32.4799 5.31053 32.7132 5.07023C32.9464 4.82993 33.215 4.6497 33.5189 4.52955C33.8228 4.40939 34.1338 4.34932 34.4518 4.34932C35.194 4.34932 35.7629 4.58255 36.1587 5.04903C36.5545 5.50843 36.7524 6.21168 36.7524 7.15876C36.7524 7.20116 36.7524 7.25771 36.7524 7.32838C36.7524 7.39199 36.7489 7.45207 36.7418 7.50861H32.9676C33.01 8.0811 33.1761 8.51577 33.4659 8.81261C33.7557 9.10946 34.208 9.25788 34.8229 9.25788C35.1692 9.25788 35.459 9.22961 35.6922 9.17307C35.9325 9.10946 36.1128 9.04938 36.2329 8.99284L36.3707 9.81977C36.2506 9.88338 36.0386 9.95053 35.7346 10.0212C35.4378 10.0919 35.0986 10.1272 34.7169 10.1272C34.2363 10.1272 33.8193 10.0565 33.4659 9.91519C33.1196 9.76676 32.8333 9.56533 32.6072 9.31089C32.381 9.05645 32.2114 8.75607 32.0983 8.40975C31.9923 8.05636 31.9393 7.67117 31.9393 7.25417ZM35.724 6.71349C35.7311 6.26822 35.618 5.90423 35.3848 5.62152C35.1586 5.33174 34.8441 5.18685 34.4412 5.18685C34.2151 5.18685 34.0136 5.23279 33.837 5.32467C33.6673 5.40948 33.5224 5.52257 33.4023 5.66392C33.2821 5.80528 33.1867 5.96784 33.116 6.1516C33.0524 6.33536 33.01 6.52266 32.9888 6.71349H35.724ZM41.7309 5.65332C41.6107 5.55437 41.4376 5.45896 41.2114 5.36708C40.9852 5.2752 40.7379 5.22926 40.4693 5.22926C40.1866 5.22926 39.9427 5.28226 39.7378 5.38828C39.5399 5.48723 39.3773 5.62858 39.2501 5.81235C39.1229 5.98904 39.031 6.20107 38.9744 6.44845C38.9179 6.69582 38.8896 6.96086 38.8896 7.24357C38.8896 7.88674 39.0487 8.38501 39.3667 8.7384C39.6848 9.08472 40.1088 9.25788 40.6389 9.25788C40.9075 9.25788 41.1301 9.24728 41.3068 9.22608C41.4906 9.19781 41.6319 9.16954 41.7309 9.14127V5.65332ZM41.7309 1.94274L42.7168 1.77312V9.84098C42.4907 9.90459 42.2009 9.9682 41.8475 10.0318C41.4941 10.0954 41.0877 10.1272 40.6283 10.1272C40.2042 10.1272 39.8226 10.0601 39.4833 9.92579C39.1441 9.7915 38.8543 9.60067 38.614 9.3533C38.3737 9.10593 38.1864 8.80555 38.0521 8.45216C37.9249 8.0917 37.8613 7.68884 37.8613 7.24357C37.8613 6.8195 37.9143 6.43078 38.0203 6.07739C38.1334 5.724 38.2959 5.42009 38.508 5.16565C38.72 4.91121 38.978 4.71331 39.2819 4.57195C39.5929 4.4306 39.9463 4.35992 40.3421 4.35992C40.6601 4.35992 40.9393 4.40233 41.1796 4.48714C41.427 4.57195 41.6107 4.65323 41.7309 4.73098V1.94274ZM47.8513 4.73098C47.9715 4.65323 48.1517 4.57195 48.392 4.48714C48.6394 4.40233 48.9221 4.35992 49.2402 4.35992C49.636 4.35992 49.9858 4.4306 50.2897 4.57195C50.6007 4.71331 50.8622 4.91121 51.0742 5.16565C51.2863 5.42009 51.4453 5.724 51.5513 6.07739C51.6644 6.43078 51.7209 6.8195 51.7209 7.24357C51.7209 7.68884 51.6538 8.0917 51.5195 8.45216C51.3923 8.80555 51.2085 9.10593 50.9682 9.3533C50.7279 9.60067 50.4381 9.7915 50.0989 9.92579C49.7596 10.0601 49.378 10.1272 48.9539 10.1272C48.4945 10.1272 48.0881 10.0954 47.7347 10.0318C47.3813 9.9682 47.0916 9.90459 46.8654 9.84098V1.94274L47.8513 1.77312V4.73098ZM47.8513 9.14127C47.9503 9.16954 48.0881 9.19781 48.2648 9.22608C48.4486 9.24728 48.6747 9.25788 48.9433 9.25788C49.4734 9.25788 49.8975 9.08472 50.2155 8.7384C50.5336 8.38501 50.6926 7.88674 50.6926 7.24357C50.6926 6.96086 50.6643 6.69582 50.6078 6.44845C50.5512 6.20107 50.4594 5.98904 50.3321 5.81235C50.2049 5.62858 50.0388 5.48723 49.8339 5.38828C49.636 5.28226 49.3957 5.22926 49.1129 5.22926C48.8444 5.22926 48.597 5.2752 48.3708 5.36708C48.1447 5.45896 47.9715 5.55437 47.8513 5.65332V9.14127ZM52.3271 11.0284C52.4048 11.0637 52.5038 11.0955 52.6239 11.1238C52.7511 11.1591 52.8748 11.1768 52.995 11.1768C53.3837 11.1768 53.6876 11.0884 53.9067 10.9117C54.1258 10.7421 54.3237 10.4629 54.5004 10.0742C54.0551 9.22608 53.6381 8.32847 53.2494 7.38139C52.8677 6.42724 52.5497 5.46249 52.2953 4.48714H53.3554C53.4332 4.80519 53.5251 5.14798 53.6311 5.5155C53.7442 5.88302 53.8678 6.26115 54.0021 6.64988C54.1364 7.0386 54.2813 7.42733 54.4368 7.81606C54.5923 8.20479 54.7548 8.57938 54.9245 8.93983C55.193 8.19772 55.4263 7.46267 55.6242 6.73469C55.8221 6.00671 56.0094 5.25753 56.1861 4.48714H57.2038C56.9494 5.5261 56.6667 6.52619 56.3557 7.48741C56.0447 8.44156 55.709 9.33563 55.3485 10.1696C55.2072 10.4877 55.0588 10.7598 54.9033 10.986C54.7548 11.2192 54.5888 11.41 54.405 11.5584C54.2212 11.7069 54.0127 11.8164 53.7795 11.8871C53.5533 11.9578 53.2953 11.9931 53.0056 11.9931C52.9278 11.9931 52.8465 11.986 52.7617 11.9719C52.6769 11.9648 52.5921 11.9507 52.5073 11.9295C52.4295 11.9154 52.3553 11.8977 52.2847 11.8765C52.221 11.8553 52.1751 11.8376 52.1468 11.8235L52.3271 11.0284Z" fill="white"/>
</svg>
