<svg width="86" height="48" viewBox="0 0 86 48" fill="none" xmlns="http://www.w3.org/2000/svg">
<path d="M0 48V39.0304C0.00262224 38.8907 0.0127742 38.7513 0.0304108 38.6127C0.141917 37.6372 0.648764 37.0665 1.55095 36.9008C1.64114 36.8826 1.73271 36.8723 1.82465 36.8701H4.72635C4.86429 36.8728 5.00171 36.8883 5.13689 36.9162C6.16579 37.111 6.6794 37.7841 6.67771 38.9356V43.1283C6.67101 43.5013 6.54273 43.8616 6.31278 44.1533C6.24028 44.2427 6.16331 44.3282 6.08216 44.4096C5.74014 44.7605 5.27433 44.9596 4.78717 44.9632H2.02739V48H0ZM2.04259 42.4081C2.05604 42.5358 2.11481 42.6542 2.20801 42.7414C2.30122 42.8286 2.42253 42.8786 2.54944 42.8822C2.58861 42.8953 2.62993 42.9005 2.67108 42.8976H4.20683C4.33089 42.8726 4.44371 42.8079 4.52868 42.7131C4.59185 42.628 4.6336 42.5286 4.65032 42.4235V39.3482C4.63636 39.25 4.5921 39.1587 4.52385 39.0874C4.45559 39.0161 4.36682 38.9683 4.27018 38.951C4.24547 38.94 4.21862 38.9347 4.19162 38.9356H2.60773C2.49688 38.93 2.38727 38.9612 2.29571 39.0247C2.20414 39.0881 2.1357 39.1802 2.10088 39.2867C2.05471 39.3644 2.02857 39.4525 2.02485 39.543V42.2851C2.02439 42.3268 2.03037 42.3683 2.04259 42.4081Z" fill="#2D3657"/>
<path d="M7.57483 38.7665C7.57538 38.626 7.59067 38.486 7.62045 38.3488C7.83332 37.363 8.47871 36.8701 9.5566 36.8701H12.3164C13.4331 36.8701 14.0633 37.4065 14.2069 38.4795C14.2191 38.5918 14.2242 38.7048 14.2221 38.8177V40.4271L9.63516 42.221V42.3543C9.63516 42.7233 9.76694 42.9079 10.0305 42.9079H14.2069V44.9734H9.75427C9.3404 44.9973 8.92707 44.9181 8.55051 44.7428C7.89921 44.3814 7.57483 43.7613 7.57483 42.8771V38.7665ZM12.1643 39.4277V39.3508C12.1398 39.2668 12.0905 39.1923 12.023 39.1374C11.9556 39.0824 11.8731 39.0496 11.7867 39.0433C11.7523 39.0324 11.7164 39.0272 11.6803 39.0279H10.2789C10.1601 39.0153 10.0403 39.0376 9.93375 39.0922C9.82723 39.1467 9.73851 39.2312 9.67824 39.3354C9.64439 39.4018 9.62865 39.4761 9.63263 39.5507V40.3836L12.1643 39.4277Z" fill="#2D3657"/>
<path d="M15.5172 38.9356C15.5172 37.5569 16.2031 36.8684 17.5749 36.8701H18.9485V38.9356H18.0641C17.7169 38.9869 17.5572 39.1304 17.5572 39.3662V44.9632H15.5298L15.5172 38.9356Z" fill="#2D3657"/>
<path d="M20.2181 44.9631V35.6963C20.21 35.4298 20.2668 35.1654 20.3835 34.9264C20.5001 34.6873 20.6731 34.4809 20.8871 34.3252C21.3208 34.007 21.8468 33.8438 22.3823 33.8614H23.6621V35.8193H22.8537L22.7929 35.8347C22.7175 35.837 22.6434 35.8545 22.5749 35.8862C22.5063 35.9178 22.4447 35.9631 22.3937 36.0192C22.3427 36.0753 22.3033 36.1412 22.2779 36.2129C22.2524 36.2847 22.2414 36.3608 22.2455 36.4369V36.87H23.6621V38.9356H22.2455V44.9631H20.2181Z" fill="#2D3657"/>
<path d="M25.1852 43.1436V38.6973C25.1888 38.5722 25.204 38.4478 25.2308 38.3257C25.4234 37.3587 26.0789 36.876 27.1974 36.8777H29.9267C30.451 36.8531 30.9671 37.0165 31.3839 37.339C31.5721 37.5078 31.7193 37.7181 31.8142 37.9536C31.9091 38.1891 31.9492 38.4436 31.9313 38.6973V43.1513C31.9481 43.4056 31.9067 43.6604 31.8105 43.8959C31.7142 44.1314 31.5657 44.3414 31.3763 44.5096C30.9595 44.8321 30.4434 44.9955 29.9191 44.9709H27.1974C26.0147 44.9709 25.3592 44.4882 25.2308 43.5229L25.1852 43.1436ZM27.6687 42.8874H29.4579C29.5208 42.8822 29.5815 42.8621 29.6353 42.8287C29.689 42.7953 29.7342 42.7495 29.7671 42.6951C29.8551 42.5902 29.9059 42.4585 29.9115 42.321V39.4763C29.9038 39.3432 29.853 39.2162 29.7671 39.115C29.7337 39.0612 29.6884 39.0161 29.6347 38.9831C29.581 38.9502 29.5205 38.9304 29.4579 38.9254H27.6687C27.605 38.9276 27.5427 38.9453 27.4871 38.9769C27.4316 39.0086 27.3843 39.0533 27.3494 39.1073C27.2648 39.2117 27.2167 39.3415 27.2126 39.4763V42.3364C27.2165 42.4705 27.2647 42.5995 27.3494 42.7028C27.3827 42.7594 27.4292 42.8067 27.4849 42.8407C27.5406 42.8747 27.6038 42.8942 27.6687 42.8976V42.8874Z" fill="#2D3657"/>
<path d="M33.3429 38.9356C33.3429 37.5569 34.0288 36.8684 35.4007 36.8701H36.7717V38.9356H35.8873C35.5494 38.9869 35.3804 39.1304 35.3804 39.3662V44.9632H33.353L33.3429 38.9356Z" fill="#2D3657"/>
<path d="M38.0414 38.8126C38.02 38.43 38.108 38.0492 38.2948 37.7158C38.4635 37.4443 38.7005 37.223 38.9814 37.0745C39.2623 36.9259 39.5772 36.8554 39.8939 36.8701H41.4474C42.2279 36.8701 42.7551 37.111 43.0288 37.5928C43.3025 37.111 43.8321 36.8701 44.6127 36.8701H46.1661C46.4828 36.8559 46.7975 36.9267 47.0783 37.0752C47.3591 37.2237 47.5961 37.4447 47.7652 37.7158C47.9589 38.0472 48.0539 38.428 48.0389 38.8126V44.9632H46.0116V39.5507C46.0116 39.1407 45.824 38.9356 45.4515 38.9356H44.5569C44.4897 38.9395 44.4237 38.9551 44.3618 38.9818C44.2635 39.0136 44.1786 39.0779 44.1207 39.1643C44.0628 39.2508 44.0353 39.3543 44.0425 39.4584V44.9632H42.0151V39.4661C42.0201 39.3432 41.9799 39.2227 41.9022 39.1281C41.8244 39.0334 41.7148 38.9712 41.5944 38.9536H40.6339C40.4987 38.9462 40.3658 38.9915 40.2626 39.0802C40.1593 39.1688 40.0936 39.2941 40.0789 39.4302C40.0764 39.4513 40.0713 39.472 40.0637 39.4918V44.9811H38.0363L38.0414 38.8126Z" fill="#2D3657"/>
<path d="M49.4607 43.1282V41.4778C49.4452 41.2188 49.4839 40.9594 49.5743 40.7165C49.6647 40.4736 49.8047 40.2528 49.9853 40.0683C50.3743 39.7155 50.8849 39.5314 51.407 39.5558H54.111V39.1253C54.111 38.951 53.9589 38.8434 53.6827 38.8024H49.4607V36.8598H54.111C54.1718 36.8598 54.2884 36.8701 54.4607 36.8906C55.4085 37.0033 55.9585 37.5065 56.1105 38.4C56.1283 38.5179 56.1376 38.637 56.1384 38.7562V43.0565C56.1419 43.3365 56.0853 43.614 55.9724 43.8698C55.8595 44.1255 55.6931 44.3534 55.4845 44.5377C55.1551 44.8153 54.7374 44.9628 54.3087 44.9529H51.521C50.3384 44.9529 49.6626 44.4651 49.4936 43.4896C49.4985 43.3682 49.4874 43.2467 49.4607 43.1282ZM51.5894 42.7797C51.6682 42.8759 51.7791 42.9397 51.9011 42.9591C51.9356 42.97 51.9715 42.9752 52.0076 42.9745H53.594C53.9319 42.9745 54.1009 42.8207 54.1009 42.5132V41.9417C54.0924 41.8071 54.0317 41.6813 53.9321 41.5915C53.8325 41.5018 53.7019 41.4555 53.5687 41.4625H51.7947C51.6224 41.4958 51.5185 41.629 51.4881 41.8674V42.5081C51.4899 42.6077 51.5257 42.7037 51.5894 42.7797Z" fill="#2D3657"/>
<path d="M59.7877 36.8701H61.7441L62.849 42.5414L63.551 38.1848C63.7031 37.2391 64.1871 36.765 64.998 36.765C65.1782 36.7581 65.3578 36.7903 65.5248 36.8592C65.6917 36.9281 65.8422 37.0323 65.9661 37.1648C66.2236 37.4428 66.3869 37.7964 66.4324 38.1745L67.1268 42.503L68.2393 36.865H70.1983L68.8856 43.587C68.8139 44.0022 68.6165 44.3846 68.3204 44.6813C68.0121 44.9659 67.6075 45.12 67.1902 45.1118C66.7922 45.1238 66.4055 44.9775 66.1131 44.7044C65.8204 44.4302 65.6291 44.0631 65.5708 43.6639L64.9398 39.5635L64.4076 43.6639C64.3602 44.0605 64.1698 44.4255 63.8728 44.689C63.5826 44.9619 63.1997 45.1115 62.8034 45.1067C62.3897 45.1194 61.9875 44.9676 61.6833 44.6839C61.3768 44.3888 61.1709 44.0029 61.0953 43.5819L59.7877 36.8701Z" fill="#2D3657"/>
<path d="M71.0701 38.7665C71.0706 38.626 71.0859 38.486 71.1157 38.3488C71.3286 37.363 71.974 36.8701 73.0518 36.8701H75.8116C76.9301 36.8701 77.5602 37.4065 77.7022 38.4795C77.7144 38.5918 77.7194 38.7048 77.7174 38.8177V40.4271L73.1304 42.221V42.3543C73.1304 42.7233 73.2622 42.9079 73.5257 42.9079H77.7047V44.9734H73.2394C72.8255 44.9973 72.4122 44.9181 72.0356 44.7428C71.3843 44.3814 71.0599 43.7613 71.0599 42.8771L71.0701 38.7665ZM75.6596 39.4277V39.3508C75.635 39.2668 75.5858 39.1923 75.5183 39.1374C75.4508 39.0824 75.3684 39.0496 75.282 39.0433C75.2475 39.0324 75.2116 39.0272 75.1755 39.0279H73.7766C73.6575 39.0151 73.5373 39.0373 73.4303 39.0919C73.3233 39.1464 73.2342 39.231 73.1735 39.3354C73.1396 39.4018 73.1239 39.4761 73.1279 39.5507V40.3836L75.6596 39.4277Z" fill="#2D3657"/>
<path d="M79.2658 42.7977V33.8538H81.2931V36.8778H84.1746C84.4233 36.8702 84.6706 36.9188 84.8986 37.0198C85.1265 37.1209 85.3293 37.2719 85.4924 37.4621C85.8311 37.8545 86.0119 38.3611 85.9992 38.8818V42.9361C86.0093 43.3119 85.9219 43.6839 85.7458 44.015C85.6001 44.3105 85.3738 44.5576 85.0935 44.727C84.8132 44.8965 84.4908 44.9811 84.1644 44.9709H81.2957C81.0117 44.9838 80.7282 44.9361 80.4637 44.8311C80.1991 44.726 79.9593 44.5658 79.7599 44.361C79.5653 44.1556 79.4196 43.9081 79.334 43.6371C79.2484 43.3662 79.225 43.0791 79.2658 42.7977ZM81.3261 42.5696C81.3481 42.6512 81.3927 42.7247 81.4547 42.7814C81.5167 42.8382 81.5934 42.8758 81.6758 42.89C81.715 42.903 81.7563 42.9083 81.7975 42.9053H83.4599C83.501 42.9066 83.5421 42.9014 83.5816 42.89C83.835 42.849 83.9769 42.7413 83.9769 42.5696V39.5174C83.9795 39.4808 83.9743 39.4441 83.9617 39.4098C83.9612 39.3444 83.9474 39.2798 83.9212 39.2199C83.8951 39.1601 83.8571 39.1063 83.8096 39.0619C83.7621 39.0175 83.7062 38.9834 83.6451 38.9617C83.5841 38.94 83.5194 38.9311 83.4548 38.9357H81.8836C81.7477 38.9268 81.6135 38.9711 81.5089 39.0593C81.4042 39.1475 81.337 39.2729 81.321 39.4098C81.3093 39.439 81.3041 39.4705 81.3058 39.502V42.4235C81.2998 42.4707 81.3068 42.5186 81.3261 42.5619V42.5696Z" fill="#2D3657"/>
<path d="M22.9348 21.1399C21.9193 20.7055 20.9309 20.2091 19.9748 19.6536L18.5709 21.6627C19.5392 22.3121 20.5399 22.9109 21.5689 23.4567L22.9348 21.1399Z" fill="url(#paint0_linear)"/>
<path d="M18.0792 22.365L16.66 24.4152C17.6456 25.182 18.6755 25.8889 19.7442 26.532L21.133 24.1871C20.085 23.6328 19.0657 23.0246 18.0792 22.365Z" fill="url(#paint1_linear)"/>
<path d="M21.878 24.5535L20.4664 26.9343C21.9072 27.7526 23.4046 28.4643 24.947 29.0639L25.9885 26.3244C24.5887 25.8071 23.2166 25.216 21.878 24.5535Z" fill="url(#paint2_linear)"/>
<path d="M26.2876 25.5376L27.4001 22.6136C26.1462 22.3157 24.9141 21.9303 23.7128 21.4603L22.3013 23.8334C23.5989 24.4732 24.9296 25.0421 26.2876 25.5376Z" fill="url(#paint3_linear)"/>
<path d="M12.9246 17.9391L11.6575 19.446C12.1314 20.056 12.6306 20.648 13.1628 21.222L14.4755 19.5383C13.8851 18.9796 13.3681 18.4517 12.9246 17.9391Z" fill="url(#paint4_linear)"/>
<path d="M15.0153 18.8489L16.3508 17.1319C15.806 16.6808 15.2763 16.2118 14.772 15.7198L13.4846 17.2574C13.923 17.7623 14.4223 18.2928 15.0153 18.8489Z" fill="url(#paint5_linear)"/>
<path d="M67.3295 0C67.3295 0 59.9017 6.30689 51.6984 9.13615L56.4602 11.5477C51.5463 18.9796 42.6892 23.7745 32.7727 23.3619C31.2396 23.2986 29.7141 23.11 28.2111 22.7981L27.4052 24.9149C27.8918 25.1199 29.0753 25.5223 31.3307 25.7478L30.7251 28.3823C29.2461 28.3963 27.7831 28.073 26.4447 27.4366L25.7174 29.351C29.3229 30.6432 33.1013 31.3751 36.9238 31.5216C50.1018 32.0675 61.6224 25.8836 66.5743 16.6578L71.2855 19.0437C71.2855 19.0437 71.8278 11.3042 67.3295 0Z" fill="url(#paint6_linear)"/>
<path d="M18.3352 20.5198C17.5206 20.0583 16.7359 19.5448 15.986 18.9822L14.7822 20.5198C15.502 21.2002 16.2638 21.8336 17.063 22.4162L18.3352 20.5198Z" fill="url(#paint7_linear)"/>
<path d="M13.1096 16.3015C12.6548 15.7926 12.2356 15.2523 11.8552 14.6844L10.8237 15.5583C11.1751 16.2237 11.5785 16.8596 12.03 17.4599L13.1096 16.3015Z" fill="url(#paint8_linear)"/>
<defs>
<linearGradient id="paint0_linear" x1="18.581" y1="21.4554" x2="22.9161" y2="21.6306" gradientUnits="userSpaceOnUse">
<stop stop-color="#FFCC00"/>
<stop offset="1" stop-color="#FFED00"/>
</linearGradient>
<linearGradient id="paint1_linear" x1="339.292" y1="440.524" x2="418.06" y2="440.524" gradientUnits="userSpaceOnUse">
<stop stop-color="#FFCC00"/>
<stop offset="1" stop-color="#FFED00"/>
</linearGradient>
<linearGradient id="paint2_linear" x1="503.926" y1="515.512" x2="623.589" y2="515.512" gradientUnits="userSpaceOnUse">
<stop stop-color="#FFCC00"/>
<stop offset="1" stop-color="#FFED00"/>
</linearGradient>
<linearGradient id="paint3_linear" x1="503.227" y1="411.618" x2="604.542" y2="411.618" gradientUnits="userSpaceOnUse">
<stop stop-color="#FFCC00"/>
<stop offset="1" stop-color="#FFED00"/>
</linearGradient>
<linearGradient id="paint4_linear" x1="157.183" y1="288.217" x2="188.548" y2="288.217" gradientUnits="userSpaceOnUse">
<stop stop-color="#FFCC00"/>
<stop offset="1" stop-color="#FFED00"/>
</linearGradient>
<linearGradient id="paint5_linear" x1="181.072" y1="244.426" x2="213.432" y2="244.426" gradientUnits="userSpaceOnUse">
<stop stop-color="#FFCC00"/>
<stop offset="1" stop-color="#FFED00"/>
</linearGradient>
<linearGradient id="paint6_linear" x1="4980.28" y1="1929.91" x2="13092.8" y2="1929.91" gradientUnits="userSpaceOnUse">
<stop stop-color="#FFCC00"/>
<stop offset="1" stop-color="#FFED00"/>
</linearGradient>
<linearGradient id="paint7_linear" x1="242.565" y1="314.724" x2="292.342" y2="314.724" gradientUnits="userSpaceOnUse">
<stop stop-color="#FFCC00"/>
<stop offset="1" stop-color="#FFED00"/>
</linearGradient>
<linearGradient id="paint8_linear" x1="119.883" y1="205.746" x2="140.776" y2="205.746" gradientUnits="userSpaceOnUse">
<stop stop-color="#FFCC00"/>
<stop offset="1" stop-color="#FFED00"/>
</linearGradient>
</defs>
</svg>
